<svg xmlns="http://www.w3.org/2000/svg" width="64" height="64" viewBox="0 0 64 64">
  <path fill="#ffffff" d="M25 6c-5 0-9 4-9 9 0 1 .2 2 .5 3H8c-1.7 0-3 1.3-3 3v10c0 1.7 1.3 3 3 3h8.5c-.3 1-.5 2-.5 3 0 5 4 9 9 9s9-4 9-9c0-1-.2-2-.5-3H42c1.7 0 3-1.3 3-3v-8.5c1 .3 2 .5 3 .5 5 0 9-4 9-9s-4-9-9-9c-1 0-2 .2-3 .5V8c0-1.7-1.3-3-3-3H31.5c.3-1 .5-2 .5-3 0-5-4-9-9-9zm0 4c2.8 0 5 2.2 5 5 0 1.2-.4 2.3-1.1 3.2-.5.6-.6 1.5-.3 2.2.3.8 1 1.3 1.9 1.3H41v10.1c0 .9.5 1.6 1.3 1.9.8.3 1.6.2 2.2-.3.9-.7 2-1.1 3.2-1.1 2.8 0 5 2.2 5 5s-2.2 5-5 5c-1.2 0-2.3-.4-3.2-1.1-.6-.5-1.5-.6-2.2-.3-.8.3-1.3 1-1.3 1.9V41H30.9c-.9 0-1.6.5-1.9 1.3-.3.8-.2 1.6.3 2.2.7.9 1.1 2 1.1 3.2 0 2.8-2.2 5-5 5s-5-2.2-5-5c0-1.2.4-2.3 1.1-3.2.5-.6.6-1.5.3-2.2-.3-.8-1-1.3-1.9-1.3H9V22h10.1c.9 0 1.6-.5 1.9-1.3.3-.8.2-1.6-.3-2.2-.7-.9-1.1-2-1.1-3.2 0-2.8 2.2-5 5-5z"/>
</svg>
